<svg id="OBJECTS" xmlns="http://www.w3.org/2000/svg" viewBox="0 0 750 763.42"><defs><style>.cls-1{fill:#fca4a4;}.cls-2,.cls-3,.cls-4{fill:#fff;}.cls-2{opacity:0.5;}.cls-3{opacity:0.1;}</style></defs><g id="Cloud"><g id="sun"><polygon class="cls-1" points="752.16 763.41 -2.16 763.41 -0.58 -6.13 752.16 -9.51 752.16 763.41"/></g><path class="cls-2" d="M694.28,143.65s3.5-7.66-6-11-19,0-19,0,3-10.43-5-12.69-18.52,1.54-18.52,1.54-3-16.21-18-16.14-21,16.14-21,16.14-14.51-7-23-1.54-2.5,11.3-2.5,11.3-8-3-18.51,1.39,0,11,0,11Z"/><path class="cls-2" d="M198,93s3.13-8.58-5.36-12.29-17,0-17,0,2.68-11.67-4.46-14.2-16.53,1.72-16.53,1.72S152,50,138.59,50.11s-18.76,18.07-18.76,18.07-13-7.87-20.55-1.72-2.23,12.65-2.23,12.65S89.9,75.7,80.52,80.66s0,12.29,0,12.29Z"/><path class="cls-2" d="M492.48,76.2s2.07-5.65-3.53-8.11a15.25,15.25,0,0,0-11.19,0s1.77-7.69-2.94-9.36-10.9,1.14-10.9,1.14-1.76-12-10.59-11.91S441,59.87,441,59.87s-8.54-5.19-13.54-1.14-1.48,8.34-1.48,8.34-4.71-2.24-10.89,1,0,8.11,0,8.11Z"/><circle class="cls-2" cx="374" cy="341" r="110.31"/><circle class="cls-3" cx="374" cy="341" r="132.38"/><circle class="cls-3" cx="374" cy="341" r="172.67"/><circle class="cls-4" cx="374" cy="341" r="91.93"/><path class="cls-2" d="M211.61,199.62s1.58-4.35-2.72-6.23a11.71,11.71,0,0,0-8.59,0s1.35-5.91-2.26-7.19-8.38.87-8.38.87-1.35-9.19-8.14-9.15-9.5,9.15-9.5,9.15-6.56-4-10.41-.87-1.13,6.41-1.13,6.41-3.62-1.73-8.37.78,0,6.23,0,6.23Z"/></g></svg>