<svg xmlns="http://www.w3.org/2000/svg" viewBox="0 0 780.16 500.94"><defs><style>.cls-1{fill:#e44f6c;opacity:0.69;}</style></defs><g id="Layer_2" data-name="Layer 2"><g id="OBJECTS"><polygon class="cls-1" points="0 0 82.52 12.52 88.98 20.65 110.53 16.89 139.62 35.67 147.69 46.3 162.24 39.42 199.94 60.7 220.95 78.22 240.34 78.22 278.04 96.36 282.89 107 302.28 107 317.9 115.76 338.37 115.76 342.68 123.27 357.76 134.54 381.77 128.28 413.24 137.66 473.03 127.65 480.57 130.78 511.81 110.13 520.97 113.26 554.9 74.46 560.29 75.72 593.14 60.7 599.61 66.33 605.53 59.45 615.77 60.7 632.46 47.56 651.32 55.69 672.86 30.66 780.16 18.77 764.83 494.06 2.17 500.94 0 0"/></g></g></svg>