<svg xmlns="http://www.w3.org/2000/svg" viewBox="0 0 775.95 420.17"><defs><style>.cls-1{fill:#921e60;}</style></defs><g id="Layer_2" data-name="Layer 2"><g id="OBJECTS"><polygon class="cls-1" points="0 6.88 69.02 0 85.18 3.44 102.42 3.44 108.88 18.15 160.59 9.07 171.36 18.15 186.98 30.66 245.69 30.66 258.08 47.56 288.25 52.56 299.56 65.7 314.97 75.37 321.1 91.98 369.04 116.39 384.5 108.75 401.9 117.64 425.6 110.13 444.39 113.89 473 92.61 498.31 87.61 553.79 58.82 560.79 65.08 571.03 53.81 585.57 52.56 607.12 40.05 618.74 43.18 634.05 30.66 666.9 25.66 691.14 13.14 775.95 15.64 765.33 420.18 0.51 420.18 0 6.88"/></g></g></svg>