<svg xmlns="http://www.w3.org/2000/svg" viewBox="0 0 757.58 398.94"><defs><style>.cls-1{fill:#771d63;}</style></defs><g id="Layer_2" data-name="Layer 2"><g id="OBJECTS"><polygon class="cls-1" points="0 18.77 63.43 8.13 70.97 8.13 85.94 3.13 98.98 10.95 119.8 0 123.03 3.13 135.06 0 146.91 6.26 172.77 18.77 190.54 32.54 214.24 36.92 221.78 46.93 240.64 58.19 259.49 56.94 264.9 65.21 278.06 65.77 283.73 75.72 295.58 81.97 309.04 90.73 333.7 82.51 354.29 98.24 374.52 114.51 427 110.13 464.17 85.73 471.17 88.23 479.79 73.21 520.23 64.45 544.96 51.94 554.12 54.44 584.82 36.29 603.82 35.67 630.61 20.02 639.23 24.4 649.2 18.15 657.54 23.15 687.41 6.88 690.39 11.26 757.58 8.76 757.58 396.44 0 398.94 0 18.77"/></g></g></svg>